<svg width="18" height="18" viewBox="0 0 18 18" fill="none" xmlns="http://www.w3.org/2000/svg">
<path d="M15.7407 7.87514V16.9998H2.28455V7.82422" stroke="white" stroke-width="2" stroke-linecap="round" stroke-linejoin="round"/>
<path d="M16.92 4.74321L14.7131 1H3.2448L1.04212 4.74321H1V6.06312C1.01758 6.54608 1.22411 7.0024 1.57449 7.33241C1.92486 7.66242 2.3906 7.83927 2.86997 7.82437H3.15636C3.63572 7.83927 4.10146 7.66242 4.45184 7.33241C4.80221 7.0024 5.00875 6.54608 5.02632 6.06312C5.04281 6.5457 5.24843 7.00201 5.59814 7.33213C5.94784 7.66225 6.41312 7.83926 6.89207 7.82437H7.18268C8.06291 7.82437 8.79995 6.81856 8.99369 6.0419C9.18743 6.81856 9.92446 7.82437 10.8089 7.82437H11.1079C11.5873 7.83927 12.053 7.66242 12.4034 7.33241C12.7538 7.0024 12.9603 6.54608 12.9779 6.06312C12.9944 6.5457 13.2 7.00201 13.5497 7.33213C13.8994 7.66225 14.3647 7.83926 14.8436 7.82437H15.13C15.6094 7.83927 16.0751 7.66242 16.4255 7.33241C16.7759 7.0024 16.9824 6.54608 17 6.06312V4.74321H16.92Z" stroke="white" stroke-width="2" stroke-linecap="round" stroke-linejoin="round"/>
<path d="M11.5796 11.3516H6.44141V17.0004H11.5796V11.3516Z" stroke="white" stroke-width="2" stroke-linecap="round" stroke-linejoin="round"/>
</svg>
