<svg width="14" height="16" viewBox="0 0 14 16" fill="none" xmlns="http://www.w3.org/2000/svg">
<path fill-rule="evenodd" clip-rule="evenodd" d="M13.4366 6.27575L13.4367 6.27605C13.8136 7.25748 14.0038 8.28797 13.9997 9.32517C13.9997 13.7793 10.6083 14.8216 8.58135 15.4447L8.58078 15.4448C8.12798 15.5629 7.69082 15.724 7.27683 15.9254C7.1091 16.0249 6.89063 16.0249 6.7229 15.9254C6.30891 15.724 5.87174 15.5629 5.41894 15.4448C3.39197 14.8228 6.54195e-05 13.7796 6.54195e-05 9.32517C-0.00405197 8.28797 0.186214 7.25748 0.563012 6.27605L0.563124 6.27575C0.946064 5.17318 1.19896 4.44516 0.0530623 2.40451C-0.0435051 2.23289 -0.00561613 2.02563 0.147065 1.8901L1.14698 1.00009C1.2993 0.864913 1.53172 0.831581 1.72398 0.917318C3.58198 1.74413 5.97389 1.21547 6.55685 0.220446C6.65146 0.0834645 6.81919 0 6.99986 0C7.18053 0 7.34827 0.0834645 7.44288 0.220446C8.02584 1.21636 10.4177 1.74502 12.2757 0.917318C12.4685 0.832282 12.7006 0.865534 12.8538 1.00009L13.8537 1.8901C14.0061 2.02584 14.0435 2.23309 13.9467 2.40451C12.8008 4.44516 13.0537 5.17318 13.4366 6.27575ZM8.92784 9.06795L10.7898 7.89318V7.89228C10.9685 7.78044 11.0449 7.57818 10.9785 7.39295C10.9121 7.20772 10.7182 7.08226 10.4998 7.08327H8.18682L7.47483 5.17858C7.39068 5.01237 7.20483 4.90544 6.99986 4.90544C6.79501 4.90544 6.60905 5.01237 6.5249 5.17858L5.81291 7.08327H3.49997C3.2815 7.08226 3.08767 7.20772 3.02118 7.39295C2.95481 7.57818 3.03131 7.78044 3.20995 7.89228L5.07189 9.06885L4.36192 10.9654C4.29262 11.1483 4.36361 11.35 4.53775 11.465C4.71179 11.5801 4.94938 11.5821 5.12589 11.4701L6.99986 10.2864L8.87384 11.4683C9.05035 11.5803 9.28794 11.5783 9.46209 11.4632C9.63612 11.3483 9.7071 11.1465 9.6378 10.9636L8.92784 9.06795Z" fill="white"/>
</svg>
