<svg width="12" height="12" viewBox="0 0 12 12" fill="none" xmlns="http://www.w3.org/2000/svg">
<path fill-rule="evenodd" clip-rule="evenodd" d="M4.98625 4.98625V1.01375C4.98625 0.453871 5.44012 0 6 0C6.55988 0 7.01375 0.453871 7.01375 1.01375V4.98625H10.9863C11.5461 4.98625 12 5.44012 12 6C12 6.55988 11.5461 7.01375 10.9863 7.01375H7.01375V10.9863C7.01375 11.5461 6.55988 12 6 12C5.44012 12 4.98625 11.5461 4.98625 10.9863V7.01375H1.01375C0.453871 7.01375 0 6.55988 0 6C0 5.44012 0.453871 4.98625 1.01375 4.98625H4.98625Z" fill="white"/>
</svg>
