<svg width="19" height="31" viewBox="0 0 19 31" fill="none" xmlns="http://www.w3.org/2000/svg">
<path d="M9.5 1C14.4739 1 18.375 4.90114 18.375 9.875C18.375 11.1001 17.9307 12.9792 17.2002 15.1533C16.4751 17.3112 15.486 19.7075 14.4375 21.9443C13.3885 24.1822 12.2858 26.2482 11.334 27.748C10.8568 28.4999 10.4266 29.0948 10.0684 29.4961C9.88854 29.6975 9.73917 29.8365 9.62207 29.9209C9.56077 29.9651 9.52048 29.9842 9.5 29.9932C9.47952 29.9842 9.43923 29.9651 9.37793 29.9209C9.26083 29.8365 9.11146 29.6975 8.93164 29.4961C8.57339 29.0948 8.14317 28.4999 7.66602 27.748C6.71421 26.2482 5.6115 24.1822 4.5625 21.9443C3.514 19.7075 2.52489 17.3112 1.7998 15.1533C1.06926 12.9792 0.625 11.1001 0.625 9.875C0.625 4.90114 4.52614 1 9.5 1ZM9.5 3.75C6.03636 3.75 3.375 6.41136 3.375 9.875C3.375 13.3386 6.03636 16 9.5 16C12.9636 16 15.625 13.3386 15.625 9.875C15.625 6.41136 12.9636 3.75 9.5 3.75Z" fill="#37474F" stroke="#37474F"/>
</svg>
