<svg width="21" height="21" viewBox="0 0 21 21" fill="none" xmlns="http://www.w3.org/2000/svg">
<path d="M13.7735 11.0272C16.3656 9.08917 18.2129 6.95745 19.2215 5.75903C19.5337 5.38805 19.6361 5.11656 19.6976 4.63833C19.9082 3.00083 20.0135 2.18208 19.5334 1.65354C19.0532 1.125 18.2041 1.125 16.5059 1.125H4.49406C2.79583 1.125 1.94677 1.125 1.46667 1.65354C0.986457 2.18208 1.09177 3.00083 1.30239 4.63834C1.36396 5.11657 1.46625 5.38806 1.77854 5.75903C2.78854 6.95898 4.63948 9.09448 7.23687 11.0349C7.47187 11.2105 7.62677 11.4966 7.65552 11.814C7.91281 14.6583 8.1501 16.2163 8.29781 17.0044C8.53614 18.2768 10.3404 19.0423 11.3062 19.7253C11.8811 20.1319 12.5789 19.6479 12.6534 19.0185C12.7954 17.8189 13.0629 15.3817 13.3549 11.814C13.3812 11.4936 13.5366 11.2043 13.7735 11.0272Z" stroke="#00B207" stroke-width="2" stroke-linecap="round" stroke-linejoin="round"/>
</svg>
