<svg width="31" height="30" viewBox="0 0 31 30" fill="none" xmlns="http://www.w3.org/2000/svg">
<path d="M19.1026 27.3158L19.1172 27.326C20.3765 28.1278 21.8716 28.476 23.3555 28.313C24.8395 28.15 26.2234 27.4857 27.2787 26.4297L28.1954 25.513C28.3985 25.31 28.5597 25.0689 28.6696 24.8036C28.7796 24.5383 28.8362 24.2539 28.8362 23.9667C28.8362 23.6795 28.7796 23.3951 28.6696 23.1297C28.5597 22.8644 28.3985 22.6234 28.1954 22.4204L24.3289 18.5568C24.1259 18.3536 23.8848 18.1925 23.6195 18.0825C23.3541 17.9726 23.0698 17.916 22.7826 17.916C22.4954 17.916 22.211 17.9726 21.9456 18.0825C21.6803 18.1925 21.4393 18.3536 21.2362 18.5568C20.8263 18.9666 20.2703 19.1968 19.6907 19.1968C19.111 19.1968 18.555 18.9666 18.1451 18.5568L11.9628 12.373C11.5529 11.963 11.3227 11.4071 11.3227 10.8274C11.3227 10.2477 11.5529 9.69178 11.9628 9.28182C12.1659 9.0788 12.3271 8.83774 12.437 8.57242C12.547 8.3071 12.6036 8.02271 12.6036 7.73551C12.6036 7.44831 12.547 7.16392 12.437 6.8986C12.3271 6.63327 12.1659 6.39222 11.9628 6.1892L8.09772 2.32561C7.68776 1.91578 7.13182 1.68555 6.55214 1.68555C5.97246 1.68555 5.41651 1.91578 5.00655 2.32561L4.08839 3.24232C3.03263 4.29774 2.36853 5.68177 2.20583 7.16571C2.04312 8.64965 2.39155 10.1447 3.19354 11.4038L3.20228 11.4184C7.43778 17.6849 12.8353 23.0814 19.1026 27.3158Z" stroke="#00B207" stroke-width="3" stroke-linecap="round" stroke-linejoin="round"/>
</svg>
