<svg width="31" height="25" viewBox="0 0 31 25" fill="none" xmlns="http://www.w3.org/2000/svg">
<path d="M29.4964 5.60547V19.2703C29.4964 20.1763 29.1365 21.0452 28.4958 21.6859C27.8551 22.3266 26.9862 22.6865 26.0802 22.6865H5.58295C4.67692 22.6865 3.80799 22.3266 3.16733 21.6859C2.52667 21.0452 2.16675 20.1763 2.16675 19.2703V5.60547" stroke="#00B207" stroke-width="3" stroke-linecap="round" stroke-linejoin="round"/>
<path d="M29.4964 5.60566C29.4964 4.69962 29.1365 3.8307 28.4958 3.19004C27.8551 2.54937 26.9862 2.18945 26.0802 2.18945H5.58295C4.67692 2.18945 3.80799 2.54937 3.16733 3.19004C2.52667 3.8307 2.16675 4.69962 2.16675 5.60566L14.021 13.0074C14.5639 13.3468 15.1913 13.5267 15.8316 13.5267C16.4718 13.5267 17.0992 13.3468 17.6422 13.0074L29.4964 5.60566Z" stroke="#00B207" stroke-width="3" stroke-linecap="round" stroke-linejoin="round"/>
</svg>
