<svg width="25" height="30" viewBox="0 0 25 30" fill="none" xmlns="http://www.w3.org/2000/svg">
<path d="M23.4771 13.3293C23.4771 21.9354 14.6624 27.2374 12.8306 28.2473C12.7291 28.3033 12.6151 28.3327 12.4992 28.3327C12.3833 28.3327 12.2693 28.3033 12.1679 28.2473C10.3347 27.2374 1.52271 21.9354 1.52271 13.3293C1.52271 6.46855 5.63916 1.66602 12.4999 1.66602C19.3607 1.66602 23.4771 6.46855 23.4771 13.3293Z" stroke="#00B207" stroke-width="3" stroke-linecap="round" stroke-linejoin="round"/>
<path d="M7.01147 12.6429C7.01147 14.0986 7.58974 15.4946 8.61905 16.5239C9.64836 17.5533 11.0444 18.1315 12.5001 18.1315C13.9558 18.1315 15.3518 17.5533 16.3811 16.5239C17.4104 15.4946 17.9887 14.0986 17.9887 12.6429C17.9887 11.1872 17.4104 9.79119 16.3811 8.76187C15.3518 7.73256 13.9558 7.1543 12.5001 7.1543C11.0444 7.1543 9.64836 7.73256 8.61905 8.76187C7.58974 9.79119 7.01147 11.1872 7.01147 12.6429V12.6429Z" stroke="#00B207" stroke-width="3" stroke-linecap="round" stroke-linejoin="round"/>
</svg>
