<svg width="41" height="41" viewBox="0 0 41 41" fill="none" xmlns="http://www.w3.org/2000/svg">
<circle cx="20.5078" cy="20.8076" r="20" fill="#00B307"/>
<g clip-path="url(#clip0_466_3577)">
<path d="M28.4914 17.5117C28.4539 16.6615 28.3164 16.0771 28.1195 15.5706C27.9163 15.033 27.6038 14.5517 27.1942 14.1516C26.7941 13.7453 26.3097 13.4296 25.7783 13.2296C25.2689 13.0326 24.6875 12.8952 23.8374 12.8577C22.9809 12.817 22.709 12.8076 20.5367 12.8076C18.3644 12.8076 18.0925 12.817 17.2392 12.8545C16.3891 12.892 15.8046 13.0296 15.2983 13.2264C14.7606 13.4296 14.2793 13.7421 13.8792 14.1516C13.4728 14.5517 13.1572 15.0362 12.9571 15.5676C12.7602 16.0771 12.6227 16.6583 12.5852 17.5085C12.5446 18.365 12.5352 18.6369 12.5352 20.8092C12.5352 22.9815 12.5446 23.2534 12.582 24.1067C12.6195 24.9568 12.7571 25.5413 12.9541 26.0478C13.1572 26.5853 13.4728 27.0666 13.8792 27.4667C14.2793 27.8731 14.7637 28.1888 15.2951 28.3888C15.8046 28.5857 16.3859 28.7232 17.2361 28.7607C18.0893 28.7983 18.3614 28.8076 20.5337 28.8076C22.706 28.8076 22.9779 28.7983 23.8312 28.7607C24.6813 28.7232 25.2658 28.5857 25.7721 28.3888C26.8474 27.9731 27.6975 27.1229 28.1132 26.0478C28.3101 25.5383 28.4477 24.9568 28.4851 24.1067C28.5226 23.2534 28.532 22.9815 28.532 20.8092C28.532 18.6369 28.5289 18.365 28.4914 17.5117ZM27.0505 24.0442C27.0161 24.8256 26.8849 25.2475 26.7755 25.5289C26.5066 26.2259 25.9534 26.7791 25.2564 27.0479C24.9751 27.1573 24.5501 27.2886 23.7717 27.3229C22.9278 27.3605 22.6747 27.3698 20.5399 27.3698C18.4051 27.3698 18.1488 27.3605 17.3079 27.3229C16.5265 27.2886 16.1046 27.1573 15.8233 27.0479C15.4764 26.9197 15.1607 26.7166 14.9044 26.4509C14.6387 26.1915 14.4355 25.8789 14.3074 25.532C14.198 25.2507 14.0667 24.8256 14.0324 24.0474C13.9948 23.2034 13.9855 22.9502 13.9855 20.8154C13.9855 18.6806 13.9948 18.4243 14.0324 17.5836C14.0667 16.8022 14.198 16.3802 14.3074 16.0989C14.4355 15.7519 14.6387 15.4363 14.9076 15.1799C15.1669 14.9142 15.4795 14.7111 15.8264 14.583C16.1077 14.4736 16.5329 14.3423 17.3111 14.3079C18.155 14.2704 18.4082 14.261 20.5429 14.261C22.6809 14.261 22.934 14.2704 23.7749 14.3079C24.5563 14.3423 24.9782 14.4736 25.2595 14.583C25.6064 14.7111 25.9221 14.9142 26.1784 15.1799C26.4441 15.4394 26.6473 15.7519 26.7755 16.0989C26.8849 16.3802 27.0161 16.8052 27.0505 17.5836C27.088 18.4275 27.0974 18.6806 27.0974 20.8154C27.0974 22.9502 27.088 23.2003 27.0505 24.0442Z" fill="white"/>
<path d="M20.5379 16.6992C18.2688 16.6992 16.4277 18.5402 16.4277 20.8094C16.4277 23.0786 18.2688 24.9196 20.5379 24.9196C22.8072 24.9196 24.6481 23.0786 24.6481 20.8094C24.6481 18.5402 22.8072 16.6992 20.5379 16.6992ZM20.5379 23.4756C19.0658 23.4756 17.8717 22.2816 17.8717 20.8094C17.8717 19.3372 19.0658 18.1432 20.5379 18.1432C22.0101 18.1432 23.2041 19.3372 23.2041 20.8094C23.2041 22.2816 22.0101 23.4756 20.5379 23.4756Z" fill="white"/>
<path d="M25.7708 16.5367C25.7708 17.0666 25.3411 17.4962 24.8111 17.4962C24.2812 17.4962 23.8516 17.0666 23.8516 16.5367C23.8516 16.0067 24.2812 15.5771 24.8111 15.5771C25.3411 15.5771 25.7708 16.0067 25.7708 16.5367Z" fill="white"/>
</g>
<defs>
<clipPath id="clip0_466_3577">
<rect width="16" height="16" fill="white" transform="translate(12.5078 12.8076)"/>
</clipPath>
</defs>
</svg>
