<?xml version="1.0" encoding="UTF-8"?>
<svg xmlns="http://www.w3.org/2000/svg" version="1.1" viewBox="0 0 1024 512">
  <!-- Generator: Adobe Illustrator 29.7.1, SVG Export Plug-In . SVG Version: 2.1.1 Build 8)  -->
  <defs>
    <style>
      .st0 {
        fill: #52af69;
        mix-blend-mode: multiply;
        opacity: .2;
      }

      .st1 {
        fill: #7cc693;
      }

      .st2 {
        isolation: isolate;
      }

      .st3 {
        fill: #12b14b;
      }

      .st4 {
        opacity: .4;
      }
    </style>
  </defs>
  <g class="st2">
    <g id="Layer_1">
      <g>
        <path class="st3" d="M323.6,381.3c7-6.8,15.4-12.7,25.3-17.9,9.9-5.2,19.7-7.8,29.3-7.8s12.5,1.6,18.1,4.7c5.5,3.1,10.3,8.4,14.1,15.9,2.4,4.8,3.6,10.8,3.6,17.9s-.9,14.7-2.7,22.6c-1.8,8-4.4,15.9-7.8,23.7-3.4,7.8-7.4,14.9-11.9,21.2-4.6,6.3-9.6,11.4-15,15.4s-11.2,6-17.2,6-8.3-1.1-12.7-3.3c-5.8-2.9-10.7-7-14.8-12.3-4.1-5.3-7.5-11-10.3-17.2-2.8-6.2-4.9-12.3-6.5-18.5-1.6-6.2-2.8-11.4-3.8-15.7-3.6-17.1-5.7-48.2-6.6-66.3-.9-18.1,15.8-13.3,16.2-.7.4,13,1.8,20.9,2.7,32.3ZM346,455.2c4.3,5.1,9.2,7.6,14.5,7.6s7.1-1.1,10.3-3.4c3.3-2.3,6.3-5.1,9-8.5,2.8-3.4,5.2-7,7.4-10.9,2.2-3.9,3.9-7.2,5.1-10.1,1.7-3.9,3-7.8,4-11.9,1-4.1,1.5-8.1,1.6-11.9.1-3.9-.3-7.5-1.3-10.9-1-3.4-2.7-6.3-5.1-8.7-4.1-3.9-8.3-6.6-12.7-8.1-4.3-1.6-8.8-2.4-13.4-2.4-8.4,0-16.4,2.1-23.9,6.2-7.5,4.1-13.5,8.9-18.1,14.5.7,11.6,2.9,22.4,6.5,32.6,3.6,10.1,8.9,18.8,15.9,26.1Z"/>
        <path class="st3" d="M196.8,427.5c-1.4,6.3-1.3,11.9.5,16.8,1.8,4.9,4.5,9.2,8.1,12.7,3.6,3.5,7.8,6.2,12.7,8,4.8,1.8,9.6,2.7,14.5,2.7s11-1.3,15.6-4c4.6-2.7,7.7-6.8,9.4-12.3,2.2-6.5,2.7-12.1,1.6-16.8-1.1-4.7-3.1-8.7-6.2-12.1-3-3.4-6.7-6.5-11-9.2-4.3-2.8-8.7-5.5-13.2-8.1-4.5-2.7-8.7-5.6-12.7-8.9-4-3.3-7.1-7.1-9.2-11.4-3.6-6.8-4.3-13.5-2.2-20.3,1-3.9,2.3-7.7,4-11.4,1.7-3.7,3.7-7.1,6.2-10,2.4-2.9,5-5.2,7.8-6.9,2.8-1.7,5.7-2.4,8.9-2.2,3.1.2,5.2,1,6.2,2.4,1,1.3,1.2,3,.7,4.9-.5,1.9-1.5,3.9-3.1,6-1.6,2.1-3.3,3.9-5.2,5.6-2.9,2.2-5.7,4.8-8.5,8-2.8,3.1-3.6,7-2.4,11.6.7,2.2,2,4,3.8,5.4,1.8,1.4,3.7,2.7,5.8,3.6,2,1,4,1.8,6,2.5,1.9.7,3.5,1.4,4.7,2.2,4.6,2.4,8.9,5,13,7.8,4.1,2.8,7.7,6.1,10.7,10,3,3.9,5.3,8.3,6.9,13.4,1.6,5.1,2.2,11.1,2,18.1.5,8.4-.6,16.1-3.3,23-2.7,6.9-7.1,13.2-13.4,19-3.6,3.6-7.8,6.3-12.7,8-4.8,1.7-9.9,2.5-15.2,2.5s-9.2-.7-13.9-2c-4.7-1.3-9.1-3.1-13.2-5.4-4.1-2.3-7.7-5.1-10.7-8.5-3-3.4-5.2-7.1-6.7-11.2-1.2-3.6-1.9-7.7-2.2-12.3-.2-4.6.1-9,1.1-13.2,1-4.2,2.7-7.9,5.2-11,2.5-3.1,6-4.9,10.3-5.4,1.2-.2,1.9,0,2,.7.1.7,0,1.6-.2,2.7-.2,1.1-.6,2.1-1.1,3.1-.5,1-1,1.7-1.4,2.2Z"/>
        <path class="st3" d="M444.6,427.5c-1.4,6.3-1.3,11.9.5,16.8,1.8,4.9,4.5,9.2,8.1,12.7,3.6,3.5,7.8,6.2,12.7,8,4.8,1.8,9.6,2.7,14.5,2.7s11-1.3,15.6-4c4.6-2.7,7.7-6.8,9.4-12.3,2.2-6.5,2.7-12.1,1.6-16.8-1.1-4.7-3.1-8.7-6.2-12.1-3-3.4-6.7-6.5-11-9.2-4.3-2.8-8.7-5.5-13.2-8.1-4.5-2.7-8.7-5.6-12.7-8.9-4-3.3-7.1-7.1-9.2-11.4-3.6-6.8-4.3-13.5-2.2-20.3,1-3.9,2.3-7.7,4-11.4,1.7-3.7,3.7-7.1,6.2-10,2.4-2.9,5-5.2,7.8-6.9,2.8-1.7,5.7-2.4,8.9-2.2,3.1.2,5.2,1,6.2,2.4,1,1.3,1.2,3,.7,4.9-.5,1.9-1.5,3.9-3.1,6-1.6,2.1-3.3,3.9-5.2,5.6-2.9,2.2-5.7,4.8-8.5,8-2.8,3.1-3.6,7-2.4,11.6.7,2.2,2,4,3.8,5.4,1.8,1.4,3.7,2.7,5.8,3.6,2,1,4,1.8,6,2.5,1.9.7,3.5,1.4,4.7,2.2,4.6,2.4,8.9,5,13,7.8,4.1,2.8,7.7,6.1,10.7,10,3,3.9,5.3,8.3,6.9,13.4,1.6,5.1,2.2,11.1,2,18.1.5,8.4-.6,16.1-3.3,23-2.7,6.9-7.1,13.2-13.4,19-3.6,3.6-7.8,6.3-12.7,8-4.8,1.7-9.9,2.5-15.2,2.5s-9.2-.7-13.9-2c-4.7-1.3-9.1-3.1-13.2-5.4-4.1-2.3-7.7-5.1-10.7-8.5-3-3.4-5.2-7.1-6.7-11.2-1.2-3.6-1.9-7.7-2.2-12.3-.2-4.6.1-9,1.1-13.2,1-4.2,2.7-7.9,5.2-11,2.5-3.1,6-4.9,10.3-5.4,1.2-.2,1.9,0,2,.7.1.7,0,1.6-.2,2.7-.2,1.1-.6,2.1-1.1,3.1-.5,1-1,1.7-1.4,2.2Z"/>
        <path class="st3" d="M937.4,465.1c3.4-.5,5.2.4,5.4,2.5.2,2.2-.5,4.7-2.2,7.6-1.7,2.9-4.1,5.6-7.2,8-3.1,2.4-6.5,3.6-10.1,3.6s-5.2-.7-7.8-2.2c-2.5-1.4-4.9-4.1-7.1-8-2.7-3.9-5.1-8.7-7.2-14.7-2.2-5.9-3.8-12.4-4.9-19.4-1.1-7-1.3-14.2-.7-21.5.6-7.4,2.5-14.4,5.6-21.2,5.8-12.5,13.3-21.8,22.4-27.9,9.2-6,18.6-9,28.2-9s14.5,1.7,21.7,5.1c6.8,3.4,12.4,7.8,17,13.2,4.6,5.4,8.2,11.5,10.9,18.3,2.7,6.8,4.3,13.8,5.1,21.2.7,7.4.6,14.7-.4,21.9-.5,5.6-1.9,11-4.2,16.3-2.3,5.3-5.1,10-8.5,14.1-3.4,4.1-7.3,7.4-11.8,10-4.5,2.5-9.1,3.8-13.9,3.8-2.7-.2-4.1-.6-4.3-1.1-.2-.5,0-1.1.9-2,.8-.8,2.1-1.9,3.8-3.3,1.7-1.3,3.3-2.8,4.7-4.5,4.8-5.5,8.7-12.2,11.6-20.1,2.9-7.8,4.4-16,4.5-24.4.1-8.4-1.4-16.8-4.5-25-3.1-8.2-8.5-15.2-15.9-21-5.3-3.4-10.7-5.1-16.3-5.1-9.2,0-18.2,4.1-27.1,12.3-3.1,3.1-5.7,7.2-7.8,12.1-2.1,4.9-3.4,10.2-4.2,15.7-.7,5.6-.8,11.2-.4,16.8.5,5.7,1.7,10.7,3.6,15,1.9,4.3,4.6,7.7,8.1,10.1,3.5,2.4,7.8,3.3,12.8,2.5Z"/>
        <g>
          <g>
            <path class="st3" d="M226.2,209.6c-38.4,5.5-78.1,5.4-115.3-5.9-37.1-11.3-71.5-34.3-94-68.3,36.6-9.9,75.7-6,112,4.7,19.8,5.9,39.2,13.9,56.2,25.5,17,11.7,31.7,27.3,41,43.9Z"/>
            <g class="st4">
              <path class="st1" d="M227.8,209.9c-.4,0-.7,0-1.1,0-66-19.6-132.1-42.2-196.3-67.2-1.1-.4-1.6-1.6-1.2-2.7.4-1.1,1.6-1.6,2.7-1.2,64.1,24.9,130,47.5,196,67.1,1.1.3,1.2,1.3.9,2.5-.2.7-.2,1.4-.9,1.6Z"/>
              <path class="st1" d="M46.8,154.2c-3.2.8-6.4,1.4-9.7,1.7-1.2.1-2.2-.8-2.3-1.9-.1-1.2.8-2.2,1.9-2.3,5.8-.5,11.5-1.9,16.9-4.2,1.1-.5,2.3,0,2.8,1.1s0,2.3-1.1,2.8c-2.8,1.2-5.6,2.1-8.5,2.9Z"/>
              <path class="st1" d="M68.9,156.5c-.9.2-2-.2-2.4-1.1-3.1-6.4-7.5-12.2-12.7-17-.9-.8-.9-2.1-.1-3,.8-.9,2.1-.9,3-.1,5.7,5.2,10.3,11.4,13.6,18.3.5,1,0,2.3-1,2.8-.1,0-.3.1-.4.1Z"/>
              <path class="st1" d="M66.3,173.7c-1.1.3-2.2-.4-2.6-1.5-.3-1.1.3-2.3,1.4-2.6,7.6-2.2,14.8-5.6,21.4-10,1-.6,2.3-.4,2.9.6.6,1,.4,2.3-.6,2.9-7,4.6-14.5,8.2-22.6,10.5,0,0,0,0,0,0Z"/>
              <path class="st1" d="M100.9,168.5c-1.1.3-2.2-.3-2.5-1.4-3.2-9.3-8.4-18.1-15.1-25.4-.8-.9-.7-2.2.1-3,.9-.8,2.2-.7,3,.1,7,7.7,12.6,17,15.9,26.9.4,1.1-.2,2.3-1.3,2.7,0,0-.1,0-.2,0Z"/>
              <path class="st1" d="M97.1,193.2c-.8.2-1.8,0-2.3-.9-.7-1-.4-2.3.6-2.9,7.4-5.1,14-11.7,18.9-19.2.6-1,1.9-1.2,2.9-.6,1,.6,1.2,1.9.6,2.9-5.3,8-12.2,15-20.1,20.4-.2.1-.4.2-.7.3Z"/>
              <path class="st1" d="M131.3,178.6c-1.1.3-2.2-.3-2.5-1.4-3.8-11.1-10-21.5-17.9-30-.8-.9-.7-2.2.1-3,.9-.8,2.2-.7,3,.1,8.3,9,14.9,19.9,18.8,31.5.4,1.1-.2,2.3-1.3,2.7,0,0-.1,0-.2,0Z"/>
              <path class="st1" d="M126.3,203.1c-.9.2-1.9-.2-2.4-1-.6-1-.2-2.3.8-2.9,8.6-4.7,16.6-10.5,23.8-17.1.9-.8,2.2-.7,3,.1.8.9.7,2.2-.1,3-7.5,6.9-15.8,12.8-24.6,17.7-.2,0-.3.2-.5.2Z"/>
              <path class="st1" d="M159.9,188.5c-1.1.3-2.2-.3-2.5-1.4-3.7-11.6-9.8-22.6-17.9-31.8-.8-.9-.7-2.2.2-3,.9-.8,2.2-.7,3,.2,8.4,9.6,14.9,21.1,18.7,33.3.3,1.1-.3,2.3-1.4,2.6,0,0,0,0-.1,0Z"/>
              <path class="st1" d="M162.4,208.7c-1,.3-2-.2-2.4-1.2-.5-1.1,0-2.3,1.1-2.8,7-3.2,13.4-7.5,18.9-13,.8-.8,2.2-.8,3,0,.8.8.8,2.2,0,3-5.8,5.8-12.6,10.4-20.1,13.8-.1,0-.2,0-.3.1Z"/>
              <path class="st1" d="M195.6,200.1c-1,.3-2.1-.3-2.5-1.2-4.1-10-10.3-19.3-17.8-27.1-.8-.8-.8-2.2,0-3,.8-.8,2.2-.8,3,0,7.9,8.1,14.3,17.9,18.7,28.4.4,1.1,0,2.3-1.1,2.8,0,0-.2,0-.3,0Z"/>
            </g>
          </g>
          <path class="st0" d="M128.8,188c19,8.3,39.4,12.7,59.6,17,2.2.5,4.6,1,6.8.5,2.2-.5,4.4-2.2,4.5-4.5.2-2.6-2-4.6-4-6.2-27.9-22.1-59.7-39.4-93.5-50.8-5.7-1.9-15.1-4-18.5,3.1-2.7,5.7,3.7,11.6,7.2,15.4,10.5,11.2,23.8,19.5,37.8,25.6Z"/>
          <path class="st1" d="M229.1,210.6c-44.2,1.5-87.4-23-112.4-59.5-25-36.5-32.7-83.4-25.8-127.8,40.2,11.4,76.4,36.5,101.1,70.2,24.7,33.7,37.9,75.7,37.1,117.1Z"/>
          <path class="st3" d="M228.3,211.3c-.7.2-1.6,0-2.1-.6-47.3-53-90.1-110.6-127.4-171.1-.6-1-.3-2.3.7-2.9,1-.6,2.3-.3,2.9.7,37.1,60.3,78.3,116.5,125.4,169.3.8.9,1.8,1.4,1.4,4.1s-.6.4-.9.5Z"/>
          <path class="st3" d="M125.5,78.8c-.5.1-1,0-1.5-.2-10.1-5.3-19.8-11.7-28.6-19-.9-.7-1-2.1-.3-3,.7-.9,2.1-1,3-.3,8.6,7.1,18,13.3,27.9,18.5,1,.5,1.4,1.8.9,2.8-.3.5-.8.9-1.3,1.1Z"/>
          <path class="st3" d="M148.6,113.4c-.4,0-.8,0-1.2,0-16.5-5.3-32.3-12.7-47.1-21.8-1-.6-1.3-1.9-.7-2.9.6-1,1.9-1.3,2.9-.7,14.4,9,30,16.2,46.1,21.4,1.1.4,1.7,1.5,1.4,2.7-.2.7-.8,1.2-1.5,1.4Z"/>
          <path class="st3" d="M169.2,140.3c-.3,0-.6,0-.9,0-18.6-3.5-37-8.6-54.6-15.4-1.1-.4-1.6-1.6-1.2-2.7.4-1.1,1.6-1.6,2.7-1.2,17.4,6.7,35.6,11.8,53.9,15.2,1.1.2,1.9,1.3,1.7,2.5-.2.8-.8,1.5-1.5,1.7Z"/>
          <path class="st3" d="M189.9,167.1c-.2,0-.5,0-.8,0-16.3-1.8-32.5-4.7-48.4-8.7-1.1-.3-1.8-1.4-1.5-2.6.3-1.1,1.4-1.8,2.6-1.5,15.7,3.9,31.8,6.8,47.9,8.6,1.2.1,2,1.2,1.9,2.3,0,.9-.7,1.6-1.6,1.8Z"/>
          <path class="st3" d="M207.1,188.2c-.3,0-.5,0-.8,0l-45.3-5.8c-1.2-.1-2-1.2-1.8-2.4.1-1.2,1.2-2,2.4-1.8l45.3,5.8c1.2.1,2,1.2,1.8,2.4-.1.9-.8,1.6-1.6,1.8Z"/>
          <path class="st3" d="M136.8,94.2c-.3,0-.6,0-.8,0-1.2-.2-1.9-1.2-1.8-2.4,1.9-12.8,1.3-26.1-1.9-38.7-.3-1.1.4-2.3,1.5-2.6h0c1.1-.3,2.3.4,2.6,1.5,3.3,13.1,4,27,2,40.3-.1.9-.8,1.5-1.6,1.7Z"/>
          <path class="st3" d="M158.8,125.4c-.2,0-.4,0-.7,0-1.2,0-2-1.1-2-2.2,1.1-16.5.3-33.1-2.4-49.5-.2-1.1.6-2.2,1.7-2.4,1.1-.2,2.2.6,2.4,1.7,2.7,16.6,3.5,33.6,2.4,50.4,0,.9-.7,1.7-1.6,1.9Z"/>
          <path class="st3" d="M180,153.5c-.3,0-.6,0-.9,0-1.1-.2-1.9-1.3-1.7-2.5,2.8-14.3,2.7-29.4-.2-43.7-.2-1.1.5-2.3,1.6-2.5,1.1-.2,2.3.5,2.5,1.6,3.1,14.8,3.1,30.5.2,45.4-.2.8-.8,1.4-1.5,1.6Z"/>
          <path class="st3" d="M199.2,176.1c-.4,0-.8,0-1.2,0-1.1-.4-1.7-1.6-1.3-2.7,3.9-11.6,4.6-24.6,1.9-36.5-.3-1.1.4-2.3,1.6-2.5,1.1-.3,2.3.5,2.5,1.6,2.9,12.9,2.2,26.3-2,38.8-.2.7-.8,1.2-1.5,1.4Z"/>
        </g>
        <path class="st3" d="M871.2,294.2c.1-14,.4-27.6.9-40.8,0-1.3,0-5,.2-11,.1-6.1,0-13.3-.5-21.8-.5-8.5-1.4-17.6-2.7-27.5-1.3-9.9-3.5-19.2-6.5-28-3-8.8-7-16.5-11.9-23.1-4.9-6.6-11.3-11-19-13.1-6-2.1-12.6-3.2-19.5-3.2-10.9,0-21.7,2.3-32.6,6.8-10.9,4.5-20.6,10.3-29.3,17.3-8.7,7-15.7,14.9-21,23.5-5.3,8.6-7.6,17.1-6.9,25.3.7,9.2,4.9,16.9,12.7,23,7.7,6.1,18.5,9.2,32.2,9.2s7.7-.2,11.6-.7c3.4-.3,6-1.4,8-3.2,1.9-1.8,3.2-3.7,3.8-5.8.6-2.1.4-4.1-.5-6.1-1-1.9-2.8-3.2-5.4-3.9-5.8-1.3-11.5-2-17-2.2-5.6-.2-10.4-.7-14.5-1.7-4.1-1-7.2-2.9-9.2-5.7-2-2.8-2.5-7.5-1.3-14.2,0-5.5,2.2-11,6.5-16.6,4.3-5.6,9.8-10.6,16.5-15,6.6-4.4,13.9-8.1,21.7-10.9,7.8-2.8,15.3-4.2,22.3-4.2s11.9,1.2,16.3,3.6c5.1,3.1,9.3,7.8,12.8,14.3,3.5,6.5,6.3,13.8,8.3,22,2,8.2,3.6,17.2,4.5,26.9,1,9.7,1.6,19.3,2,28.8.4,9.5.5,18.8.5,27.7v24.1c0,3.1-.1,7.8-.4,14.2-.2,6.2-.6,13.2-1,21.1l17.9.9c.4-10.1.6-20.2.7-30.3Z"/>
        <path class="st3" d="M853.5,285.4c0,.4,0,.8,0,1.2-.5,12.3-1.1,25.5-1.8,39.5-.7,14-1.6,27.8-2.5,41.3-3.4-1.7-7.1-3.1-11.2-4.2-4.1-1.1-8.3-1.6-12.7-1.6-6.8,0-13,1.4-18.8,4.3-10.9,5.3-19.4,12.1-25.5,20.3-6.2,8.2-10.4,16.8-12.7,25.9-2.3,9-2.9,18.1-1.8,27.1,1.1,9.1,3.4,17.2,7.1,24.4,3.6,7.2,8.4,13.2,14.3,17.7,5.9,4.6,12.5,6.9,19.7,6.9s11.2-1.4,17-4.3c9.9-5.1,17.2-12.2,22.1-21.5,4.8-9.3,8.6-19.7,11.2-31.3,4.1-20.8,7.1-41.7,9.1-62.8,1.9-21.1,3.3-42.3,4-63.5.2-6,.4-12,.5-18l-17.9-1.4ZM844.6,408.6c-1.1,8-2.2,15.2-3.4,21.7-1.2,6.5-2.5,12.1-4,16.7-1.4,4.6-3,8-4.7,10.1-6.8,7.7-13.6,11.6-20.6,11.6s-9.3-1.7-13.4-5.1c-4.1-3.4-7.4-8-9.8-13.8-2.4-5.8-3.8-12.5-4.2-20.1-.4-7.6.9-15.6,3.8-24.1,2.7-8,7-13.9,13-17.9,6-4,13.3-6.7,21.7-8.1,5.1-1.2,9.6-1.2,13.6,0,4,1.2,7.7,2.4,11,3.6-1,8.9-2,17.4-3.1,25.3Z"/>
        <path class="st3" d="M261.3,222.4c-7.3-5.6-27.8-12.9-31.5-13.9-15.9-4.3-25-6.1-25.1-5.4-.1.7,31.2,12.9,37.5,17,8.2,5.1,9.9,10.8,4.3,15.9-6,5.4-11,8-22.6,10.9-7.7,1.9-16.3,3.7-25.1,3.6-8.8-.1-18,.1-28.1.1s-15.5-.5-25,.3c-3.2.2-9.2,1.2-12.3,2.1v21.1c8-2,15.9-2.5,24.6-3,9-.5,18-1.1,27.6-1.7,9.5-.6,19.1-.5,28.2-2.4,9.2-1.9,17.9-4.7,26.2-8.2,8.3-3.5,13.6-5.7,20.1-12,2.7-2.7,15.4-13.4,1.3-24.3Z"/>
        <path class="st3" d="M133.1,253c-15.9,4.6-29.9,12.7-42,24.4-12.1,11.7-21.8,25.4-29.3,41.1-7.5,15.7-12.4,32.5-14.7,50.5-2.3,18-1.6,35.5,2,52.7,1,4.3,2.2,9.6,3.8,15.7,1.6,6.2,3.7,12.3,6.5,18.5,2.8,6.2,6.2,11.9,10.3,17.2,4.1,5.3,9,9.4,14.8,12.3,4.3,2.2,8.6,3.3,12.7,3.3,6,0,11.8-2,17.2-6s10.4-9.1,15-15.4c4.6-6.3,8.6-13.3,11.9-21.2,3.4-7.8,6-15.7,7.8-23.7,1.8-8,2.7-15.5,2.7-22.6s-1.2-13.1-3.6-17.9c-3.9-7.5-8.6-12.8-14.1-15.9-5.6-3.1-11.6-4.7-18.1-4.7-9.7,0-19.4,2.6-29.3,7.8-9.9,5.2-18.3,11.2-25.3,17.9.5-11.8,2.3-23.6,5.4-35.3,3.1-11.7,7.7-22.6,13.6-32.8,5.9-10.1,13.1-19.1,21.5-26.8,8.4-7.7,18.1-13.5,29-17.4.8-.3,1.7-.5,2.6-.8v-21c-.2,0-.3,0-.4,0ZM79.5,387.6c7.5-4.1,15.4-6.2,23.9-6.2s9,.8,13.4,2.4c4.3,1.6,8.6,4.3,12.7,8.1,2.4,2.4,4.1,5.3,5.1,8.7,1,3.4,1.4,7,1.3,10.9-.1,3.9-.7,7.8-1.6,11.9-1,4.1-2.3,8.1-4,11.9-1.2,2.9-2.9,6.3-5.1,10.1-2.2,3.9-4.6,7.5-7.4,10.9-2.8,3.4-5.8,6.2-9,8.5-3.3,2.3-6.7,3.4-10.3,3.4-5.3,0-10.1-2.5-14.5-7.6-7-7.2-12.3-15.9-15.9-26.1-3.6-10.1-5.8-21-6.5-32.6,4.6-5.5,10.6-10.4,18.1-14.5Z"/>
        <path class="st3" d="M711.7,415.7c-.1,2.5-.4,4.9-.7,7.2-1.8,10.8-4.7,20.1-8.7,27.7-4,7.6-8.1,13.6-12.5,17.9-4.3,4.3-7.2,7-8.7,8.1-4.1,3.9-6.4,6.8-6.9,8.7-.5,1.9.2,2.9,2.2,2.9s4.5-.8,7.6-2.5c4.3-1.9,8.9-4.4,13.6-7.5,4.7-3.1,9.2-6.8,13.6-11.2,4.3-4.4,8.1-9.8,11.4-16.2,3.3-6.4,5.6-13.9,7.1-22.5.7-4.4,1.1-8.6,1.4-12.6h-19.3Z"/>
        <path class="st3" d="M727.1,386.4c-4.6-10.5-11.2-18.9-19.9-25.2-6-4-12.2-6-18.5-6s-15.5,2.5-21.9,7.4c-6.4,4.9-12,10.3-16.8,16.1-4.1-4.7-7.6-8.7-10.5-12.1-2.9-3.4-7.1-6.1-12.7-8.2-4.8-2.3-10-3.5-15.6-3.5-8.2,0-16.4,2.7-24.6,8.1-8.2,5.4-15.8,13.7-22.8,24.9.2-.7.8-4,1.6-9.8.8-5.8,2-12.9,3.6-21,1.6-8.2,3.7-16.8,6.5-25.9,2.8-9.1,6.1-17.3,10-24.5,2.6-5,5.4-9.4,8.3-14.4,14.9-22.4,27.3-40.1,38.1-59,12.2-21.3,21-40.8,26.3-58.5,5.3-17.7,6.9-33.2,4.6-46.6-.4-3.3-2.8-4.7-7.3-4.3-3.7.4-8.3,2.5-13.9,6.3-5.5,3.8-10.9,9.5-16.3,17.2-.7,1-3.4,4.6-8.1,10.9-4.7,6.3-11.1,14.7-19.1,25.2-8,10.5,5.1,10.6,12.1,1.8,7-8.8,12.5-15.8,16.5-20.9,4-5.1,6.3-7.4,6.9-7.1,2.6,1.7,4.1,4.5,4.5,8.2.4,3.7.5,8.2.2,13.3-1.5,13.3-6.4,27.7-14.7,43.1-8.3,15.4-18.7,31.5-31.3,48.2-3.9,5.2-7.4,10.5-11.5,16-4.4,6.9-9,13.4-12.2,20-5.6,11.2-10.1,22.6-13.8,34-3.6,11.5-5.7,23-6.3,34.5-.6,11.6.8,23.1,4.2,34.7,3.4,11.6,9.2,23,17.4,34.2,2.7,3.5,4.9,7.2,6.9,11,1.9,3.9,3.3,7.5,4,11,.7,3.5.7,6.7-.2,9.6-.8,2.9-2.7,5.2-5.6,6.8-2.7.9-3.7,2.2-3.1,3.9.6,1.6,2.1,2.5,4.5,2.5s3.4-.5,5.1-1.4c8.4-4.7,13.6-10.2,15.4-16.5,1.8-6.3,1.7-13.2-.2-20.7-.7-3.3-2.1-6.5-4.2-9.8-2.1-3.3-4.2-6.8-6.3-10.5-2.2-3.7-4.2-7.7-6-11.9-1.8-4.2-2.8-8.9-3.1-14-.2-4.7,1-9.1,3.6-13.3,2.7-4.2,6-7.9,10-11,4-3.2,8.4-5.5,13.2-7,4.8-1.5,9.2-1.8,13-.9,2.2.5,4.4,1.8,6.7,3.9,2.3,2.1,4.2,4.6,5.8,7.4,1.6,2.8,2.8,5.7,3.8,8.8,1,3,1.3,5.7,1.1,8.1-1.9,8.7-2.1,14.4-.4,17.4,1.7,2.9,4.2,5.1,7.6,6.5,1.9,1.2,3.9,1.3,6,.5,2-.8,3.8-2.5,5.2-4.9,1.4-2.5,2.5-5.5,3.3-9.3.7-3.7.7-8.1,0-13-.5-3.3,0-6.3,1.4-9.1,1.4-2.8,3.6-5.4,6.3-7.7,2.8-2.3,5.9-4.1,9.4-5.4,3.5-1.3,7.1-1.9,10.7-1.9s9.4,1.4,13.8,4.2c4.3,2.8,7.6,7.6,9.8,14.4,3,9.2,4.3,17.6,3.8,25.2h19.3c.9-11.5-.4-21.3-3.9-29.4Z"/>
        <path class="st3" d="M477.9,200.6c-1.2-1.7-2.5-2.8-3.8-3.1-1.3-.3-2.5-.8-3.6-1.3-1.1-.5-1.9-1.5-2.5-2.8-.6-1.3-.7-3.9-.2-7.9,1.4-13.1.9-24.1-1.6-32.9-2.5-8.8-8-15.8-16.5-20.8-5.8-3.3-11.9-4.9-18.5-4.9s-10.2.9-14.4,2.2l2.5,9.7c2.5-1,7.1-2.2,9.5-2.1,5.1.4,10.7,3.2,14.2,8.5,3.4,5.2,4.8,14.2,6.3,20.1,1.4,5.9,1.3,11.7-.5,17.4-1.8,5.7-6.1,9.7-12.8,12.1-3.4,0-5.9,1-7.6,2.9-1.7,2-2.9,4.2-3.6,6.6-.7,2.4-1,4.7-.7,6.9.2,2.2.6,3.5,1.1,3.9,1,.9,2.7.9,5.2,0,2.5-.9,5.2-1.9,8.1-3,2.9-1.1,5.8-2.1,8.9-2.9,3-.9,5.5-.9,7.4,0,.7.2,1.7.7,3.1,1.5,1.3.8,2.8,1.6,4.5,2.5,1.7.9,3.4,1.6,5.2,2.1,1.8.5,3.6.8,5.2.8s3.9-.5,5.1-1.6c.7-.7,1.4-2.3,2-4.9.6-2.6,0-5.6-2-8.8Z"/>
        <path class="st3" d="M410,131.3c-7.4,2.8-13.8,6.7-19.4,11.6-.5.2-1-.1-1.4-.8-.5-.7-1.1-1.6-2-2.9-.8-1.2-2.1-2.7-3.6-4.4-1.6-1.7-3.8-3.4-6.7-5.3-4.1-2.6-8.6-4.6-13.6-5.9-4.9-1.3-9.8-2-14.7-2s-12,.8-17.9,2.4c-5.9,1.6-11.4,3.9-16.5,6.8-5.1,2.9-9.6,6.3-13.6,10.2-4,3.9-7.1,8.2-9.2,12.7-3.4,7.3-5.2,16.9-5.6,28.7-.4,11.8.1,24.8,1.4,39,1.3,14.2,3.1,29.2,5.4,44.9,2.3,15.7,4.6,31.1,6.9,46.1,2.3,15.1,4.1,29.4,5.4,42.9.4,4,.7,7.8.9,11.5l16.2-.7c-.4-5.7-1.3-19.4-2-25-1.8-14.2-2.9-23.9-5.6-39.7-1.7-10.9-3.1-22-4.2-33.4-1.1-11.4-2-22.4-2.7-32.9-.7-10.6-1.3-20.5-1.6-29.7-.4-9.3-.7-17.2-.9-23.8-.5-7.3.3-14,2.4-20,2-6,4.9-11.1,8.5-15.4,3.6-4.3,7.9-7.6,12.8-10,4.9-2.4,10.1-3.6,15.4-3.6,8.9,0,16.9,3.4,23.9,10.3,2.9,2.8,5,6.1,6.3,10,1.3,3.9,1.6,7.7.9,11.3-.7,3.6-2.7,23.6,3.6,20.5,1.4-.5,2.5-.7,3.3-.8.7,0,13.6-26.3,14.8-28.1,1-1.5,2.5-3.4,4.5-5.6,2-2.2,4.5-4.3,7.2-6.3,2.8-2,5.8-3.7,9.2-5.1.7-.3,3.1-1.2,3.8-1.4l-.4-9.8c-3.9.7-7.7,1.8-11.5,3.3Z"/>
      </g>
    </g>
  </g>
</svg>