<svg width="16" height="17" viewBox="0 0 16 17" fill="none" xmlns="http://www.w3.org/2000/svg">
<path d="M1.68662 9.84705C1.54485 10.7764 2.17867 11.4215 2.95471 11.7429C5.92988 12.9755 10.0701 12.9755 13.0453 11.7429C13.8213 11.4215 14.4551 10.7764 14.3134 9.84705C14.2263 9.27592 13.7955 8.80032 13.4763 8.33592C13.0582 7.72019 13.0167 7.04852 13.0166 6.33398C13.0166 3.57256 10.7706 1.33398 8.00001 1.33398C5.22943 1.33398 2.98343 3.57256 2.98343 6.33398C2.98336 7.04852 2.94182 7.72019 2.52375 8.33592C2.20457 8.80032 1.77375 9.27592 1.68662 9.84705Z" stroke="#686868" stroke-width="2" stroke-linecap="round" stroke-linejoin="round"/>
<path d="M5.5 13.5C5.80566 14.6501 6.88367 15.5 8.16667 15.5C9.44967 15.5 10.5277 14.6501 10.8333 13.5" stroke="#686868" stroke-width="2" stroke-linecap="round" stroke-linejoin="round"/>
</svg>
