<svg width="12" height="16" viewBox="0 0 12 16" fill="none" xmlns="http://www.w3.org/2000/svg">
<path fill-rule="evenodd" clip-rule="evenodd" d="M8.57148 3.556C9.04484 3.556 9.42863 3.1581 9.42863 2.6672V1.77826C9.42863 1.28734 9.04484 0.88937 8.57148 0.88937H7.47942C7.17567 0.33933 6.61127 0 6.00001 0C5.38875 0 4.82435 0.33933 4.5206 0.88937H3.42854C2.95518 0.88937 2.57139 1.28734 2.57139 1.77826V2.6672C2.57139 3.1581 2.95518 3.556 3.42854 3.556H8.57148ZM10.2857 2.2222C10.2857 1.97676 10.4776 1.77778 10.7143 1.77778C11.424 1.77876 11.999 2.3751 12 3.1111V14.6667C11.999 15.4026 11.424 15.999 10.7143 16H1.2857C0.575988 15.999 0.000945002 15.4026 0 14.6667V3.1111C0.000945002 2.3751 0.575988 1.77876 1.2857 1.77778C1.52244 1.77778 1.71433 1.97676 1.71433 2.2222V2.6667C1.71568 3.6479 2.48239 4.443 3.42854 4.4444H8.57148C9.51763 4.443 10.2843 3.6479 10.2857 2.6667V2.2222ZM8.57148 6.6667C8.57148 6.4212 8.37958 6.2222 8.14285 6.2222H2.14286C1.90613 6.2222 1.71433 6.4212 1.71433 6.6667C1.71433 6.9121 1.90613 7.1111 2.14286 7.1111H8.14285C8.37958 7.1111 8.57148 6.9121 8.57148 6.6667ZM2.14286 8.8889H6.42854C6.66527 8.8889 6.85717 9.0879 6.85717 9.3333C6.85717 9.5788 6.66527 9.7778 6.42854 9.7778H2.14286C1.90613 9.7778 1.71433 9.5788 1.71433 9.3333C1.71433 9.0879 1.90613 8.8889 2.14286 8.8889ZM2.14286 12.4444H9.85716C10.0939 12.4444 10.2857 12.2455 10.2857 12C10.2857 11.7545 10.0939 11.5556 9.85716 11.5556H2.14286C1.90613 11.5556 1.71433 11.7545 1.71433 12C1.71433 12.2455 1.90613 12.4444 2.14286 12.4444ZM6.42854 1.77826H5.57148C5.33475 1.77826 5.14285 1.97725 5.14285 2.2227C5.14285 2.4682 5.33475 2.6671 5.57148 2.6671H6.42854C6.66527 2.6671 6.85717 2.4682 6.85717 2.2227C6.85717 1.97725 6.66527 1.77826 6.42854 1.77826Z" fill="#686868"/>
</svg>
