<svg width="41" height="41" viewBox="0 0 41 41" fill="none" xmlns="http://www.w3.org/2000/svg">
<circle cx="20.5078" cy="20.8076" r="20" fill="#00B307"/>
<circle cx="20.5078" cy="20.8076" r="20" fill="#00B307"/>
<circle cx="20.5078" cy="20.8076" r="20" fill="#00B307"/>
<g clip-path="url(#clip0_466_3566)">
<path d="M29.5078 15.2265C28.8384 15.5201 28.1252 15.7147 27.3816 15.8092C28.1466 15.3525 28.7304 14.6347 29.0049 13.7696C28.2917 14.1949 27.5042 14.4952 26.6649 14.6629C25.9877 13.9417 25.0224 13.4951 23.9694 13.4951C21.9264 13.4951 20.2817 15.1534 20.2817 17.1862C20.2817 17.4787 20.3064 17.76 20.3672 18.0277C17.2993 17.8781 14.5847 16.4077 12.7611 14.1679C12.4427 14.7202 12.2559 15.3525 12.2559 16.0331C12.2559 17.3111 12.9141 18.444 13.8951 19.0999C13.3022 19.0886 12.7206 18.9165 12.2278 18.6454C12.2278 18.6566 12.2278 18.6712 12.2278 18.6859C12.2278 20.4791 13.5069 21.9686 15.1843 22.3117C14.8839 22.3939 14.5566 22.4332 14.2168 22.4332C13.9806 22.4332 13.7421 22.4197 13.5182 22.3702C13.9963 23.8316 15.3531 24.906 16.9663 24.9409C15.7108 25.923 14.1167 26.5147 12.3909 26.5147C12.0883 26.5147 11.7981 26.5012 11.5078 26.4641C13.1424 27.5182 15.0797 28.1201 17.1688 28.1201C23.9593 28.1201 27.6718 22.4951 27.6718 17.6194C27.6718 17.4562 27.6662 17.2987 27.6583 17.1424C28.3907 16.6226 29.0061 15.9735 29.5078 15.2265Z" fill="white"/>
</g>
<defs>
<clipPath id="clip0_466_3566">
<rect width="18" height="18" fill="white" transform="translate(11.5078 11.8076)"/>
</clipPath>
</defs>
</svg>
