<svg width="20" height="20" viewBox="0 0 20 20" fill="none" xmlns="http://www.w3.org/2000/svg">
<path d="M19.3242 10.0898C19.3242 10.3882 19.2057 10.6744 18.9947 10.8853C18.7837 11.0963 18.4976 11.2148 18.1992 11.2148H11.0742V18.3398C11.0742 18.6382 10.9557 18.9244 10.7447 19.1353C10.5337 19.3463 10.2476 19.4648 9.94922 19.4648C9.65085 19.4648 9.3647 19.3463 9.15372 19.1353C8.94275 18.9244 8.82422 18.6382 8.82422 18.3398V11.2148H1.69922C1.40085 11.2148 1.1147 11.0963 0.903724 10.8853C0.692745 10.6744 0.574219 10.3882 0.574219 10.0898C0.574219 9.79148 0.692745 9.50533 0.903724 9.29435C1.1147 9.08337 1.40085 8.96484 1.69922 8.96484H8.82422V1.83984C8.82422 1.54148 8.94275 1.25533 9.15372 1.04435C9.3647 0.83337 9.65085 0.714844 9.94922 0.714844C10.2476 0.714844 10.5337 0.83337 10.7447 1.04435C10.9557 1.25533 11.0742 1.54148 11.0742 1.83984V8.96484H18.1992C18.4976 8.96484 18.7837 9.08337 18.9947 9.29435C19.2057 9.50533 19.3242 9.79148 19.3242 10.0898Z" fill="white"/>
</svg>
